<?xml version="1.0" encoding="UTF-8" standalone="no"?>
<!DOCTYPE svg PUBLIC "-//W3C//DTD SVG 1.1//EN" "http://www.w3.org/Graphics/SVG/1.1/DTD/svg11.dtd">
<svg width="100%" height="100%" viewBox="0 0 1280 400" version="1.1" xmlns="http://www.w3.org/2000/svg" xmlns:xlink="http://www.w3.org/1999/xlink" xml:space="preserve" xmlns:serif="http://www.serif.com/" style="fill-rule:evenodd;clip-rule:evenodd;stroke-linecap:round;stroke-linejoin:round;stroke-miterlimit:1.5;">
    <g transform="matrix(1,0,0,1,-29.9809,2.44742)">
        <g>
            <g transform="matrix(1.02888,0,0,0.928548,-20.3952,-2.32133)">
                <rect x="536.8" y="18.891" width="268.4" height="75.87" style="fill:rgb(253,253,253);stroke:black;stroke-width:1.01px;"/>
            </g>
            <g transform="matrix(1,0,0,1,74.6463,0.485397)">
                <text x="461.746px" y="31.657px" style="font-family:'Consolas', monospace;font-size:12px;">fn foo() {</text>
                <text x="497.746px" y="45.708px" style="font-family:'Consolas', monospace;font-size:12px;"><tspan x="497.746px " y="45.708px ">l</tspan>et future = TcpStream::connect(…);</text>
                <text x="497.746px" y="59.759px" style="font-family:'Consolas', monospace;font-size:12px;"><tspan x="497.746px " y="59.759px ">t</tspan>okio::spawn(future);</text>
                <text x="461.746px" y="73.81px" style="font-family:'Consolas', monospace;font-size:12px;">}</text>
            </g>
        </g>
    </g>
    <g transform="matrix(1,0,0,1,3.67113,2.0395)">
        <g>
            <g transform="matrix(1,0,0,1,-2.44742,-5.30275)">
                <rect x="112.989" y="236.303" width="172.543" height="147.661" style="fill:rgb(253,253,253);stroke:black;stroke-width:0.99px;"/>
            </g>
            <g transform="matrix(1,0,0,1,-5.5067,0)">
                <rect x="167.24" y="175.526" width="70.159" height="72.199" style="fill:rgb(239,255,0);stroke:black;stroke-width:0.99px;"/>
            </g>
            <g>
                <g transform="matrix(1,0,0,1,0.203958,0)">
                    <path d="M132.569,271.383L256.163,271.383" style="fill:none;stroke:black;stroke-width:0.99px;"/>
                </g>
                <g transform="matrix(1,0,0,1,0.203958,12.1206)">
                    <path d="M132.569,271.383L256.163,271.383" style="fill:none;stroke:black;stroke-width:0.99px;"/>
                </g>
                <g transform="matrix(1,0,0,1,0.203958,24.2411)">
                    <path d="M132.569,271.383L256.163,271.383" style="fill:none;stroke:black;stroke-width:0.99px;"/>
                </g>
                <g transform="matrix(1,0,0,1,0.203958,36.3617)">
                    <path d="M132.569,271.383L256.163,271.383" style="fill:none;stroke:black;stroke-width:0.99px;"/>
                </g>
                <g transform="matrix(1,0,0,1,0.203958,48.4822)">
                    <path d="M132.569,271.383L256.163,271.383" style="fill:none;stroke:black;stroke-width:0.99px;"/>
                </g>
                <g transform="matrix(1,0,0,1,0.203958,60.6028)">
                    <path d="M132.569,271.383L256.163,271.383" style="fill:none;stroke:black;stroke-width:0.99px;"/>
                </g>
                <g transform="matrix(1,0,0,1,0.203958,72.7233)">
                    <path d="M132.569,271.383L256.163,271.383" style="fill:none;stroke:black;stroke-width:0.99px;"/>
                </g>
                <g transform="matrix(1,0,0,1,0.203958,84.8439)">
                    <path d="M132.569,271.383L256.163,271.383" style="fill:none;stroke:black;stroke-width:0.99px;"/>
                </g>
            </g>
            <g transform="matrix(1,0,0,1,0,-1.01977)">
                <g transform="matrix(0.392739,0,0,0.615385,121.906,19.5342)">
                    <path d="M132.569,271.383L256.163,271.383" style="fill:none;stroke:black;stroke-width:1.92px;"/>
                </g>
                <g transform="matrix(0.392739,0,0,0.615385,121.906,26.993)">
                    <path d="M132.569,271.383L256.163,271.383" style="fill:none;stroke:black;stroke-width:1.92px;"/>
                </g>
                <g transform="matrix(0.392739,0,0,0.615385,121.906,34.4518)">
                    <path d="M132.569,271.383L256.163,271.383" style="fill:none;stroke:black;stroke-width:1.92px;"/>
                </g>
                <g transform="matrix(0.392739,0,0,0.615385,121.906,41.9106)">
                    <path d="M132.569,271.383L256.163,271.383" style="fill:none;stroke:black;stroke-width:1.92px;"/>
                </g>
                <g transform="matrix(0.392739,0,0,0.615385,121.906,49.3694)">
                    <path d="M132.569,271.383L256.163,271.383" style="fill:none;stroke:black;stroke-width:1.92px;"/>
                </g>
                <g transform="matrix(0.392739,0,0,0.615385,121.906,56.8282)">
                    <path d="M132.569,271.383L256.163,271.383" style="fill:none;stroke:black;stroke-width:1.92px;"/>
                </g>
                <g transform="matrix(0.392739,0,0,0.615385,121.906,64.287)">
                    <path d="M132.569,271.383L256.163,271.383" style="fill:none;stroke:black;stroke-width:1.92px;"/>
                </g>
                <g transform="matrix(0.392739,0,0,0.615385,121.906,71.7458)">
                    <path d="M132.569,271.383L256.163,271.383" style="fill:none;stroke:black;stroke-width:1.92px;"/>
                </g>
            </g>
        </g>
        <rect x="258.333" y="236.711" width="19.579" height="29.777" style="fill:rgb(255,0,0);stroke:rgb(255,0,0);stroke-width:1.41px;"/>
        <g transform="matrix(1,0,0,1,-8.56597,-1.22371)">
            <text x="294.088px" y="256.922px" style="font-family:'ArialMT', 'Arial', sans-serif;font-size:16px;stroke:white;stroke-width:1px;stroke-linecap:butt;stroke-miterlimit:1.41421;">Reactor</text>
        </g>
    </g>
    <g transform="matrix(1,0,0,1,286.484,2.0395)">
        <g>
            <g transform="matrix(1,0,0,1,-2.44742,-5.30275)">
                <rect x="112.989" y="236.303" width="172.543" height="147.661" style="fill:rgb(253,253,253);stroke:black;stroke-width:0.99px;"/>
            </g>
            <g transform="matrix(1,0,0,1,-5.5067,0)">
                <rect x="167.24" y="175.526" width="70.159" height="72.199" style="fill:rgb(239,255,0);stroke:black;stroke-width:0.99px;"/>
            </g>
            <g>
                <g transform="matrix(1,0,0,1,0.203958,0)">
                    <path d="M132.569,271.383L256.163,271.383" style="fill:none;stroke:black;stroke-width:0.99px;"/>
                </g>
                <g transform="matrix(1,0,0,1,0.203958,12.1206)">
                    <path d="M132.569,271.383L256.163,271.383" style="fill:none;stroke:black;stroke-width:0.99px;"/>
                </g>
                <g transform="matrix(1,0,0,1,0.203958,24.2411)">
                    <path d="M132.569,271.383L256.163,271.383" style="fill:none;stroke:black;stroke-width:0.99px;"/>
                </g>
                <g transform="matrix(1,0,0,1,0.203958,36.3617)">
                    <path d="M132.569,271.383L256.163,271.383" style="fill:none;stroke:black;stroke-width:0.99px;"/>
                </g>
                <g transform="matrix(1,0,0,1,0.203958,48.4822)">
                    <path d="M132.569,271.383L256.163,271.383" style="fill:none;stroke:black;stroke-width:0.99px;"/>
                </g>
                <g transform="matrix(1,0,0,1,0.203958,60.6028)">
                    <path d="M132.569,271.383L256.163,271.383" style="fill:none;stroke:black;stroke-width:0.99px;"/>
                </g>
                <g transform="matrix(1,0,0,1,0.203958,72.7233)">
                    <path d="M132.569,271.383L256.163,271.383" style="fill:none;stroke:black;stroke-width:0.99px;"/>
                </g>
                <g transform="matrix(1,0,0,1,0.203958,84.8439)">
                    <path d="M132.569,271.383L256.163,271.383" style="fill:none;stroke:black;stroke-width:0.99px;"/>
                </g>
            </g>
            <g transform="matrix(1,0,0,1,0,-1.01977)">
                <g transform="matrix(0.392739,0,0,0.615385,121.906,19.5342)">
                    <path d="M132.569,271.383L256.163,271.383" style="fill:none;stroke:black;stroke-width:1.92px;"/>
                </g>
                <g transform="matrix(0.392739,0,0,0.615385,121.906,26.993)">
                    <path d="M132.569,271.383L256.163,271.383" style="fill:none;stroke:black;stroke-width:1.92px;"/>
                </g>
                <g transform="matrix(0.392739,0,0,0.615385,121.906,34.4518)">
                    <path d="M132.569,271.383L256.163,271.383" style="fill:none;stroke:black;stroke-width:1.92px;"/>
                </g>
                <g transform="matrix(0.392739,0,0,0.615385,121.906,41.9106)">
                    <path d="M132.569,271.383L256.163,271.383" style="fill:none;stroke:black;stroke-width:1.92px;"/>
                </g>
                <g transform="matrix(0.392739,0,0,0.615385,121.906,49.3694)">
                    <path d="M132.569,271.383L256.163,271.383" style="fill:none;stroke:black;stroke-width:1.92px;"/>
                </g>
                <g transform="matrix(0.392739,0,0,0.615385,121.906,56.8282)">
                    <path d="M132.569,271.383L256.163,271.383" style="fill:none;stroke:black;stroke-width:1.92px;"/>
                </g>
                <g transform="matrix(0.392739,0,0,0.615385,121.906,64.287)">
                    <path d="M132.569,271.383L256.163,271.383" style="fill:none;stroke:black;stroke-width:1.92px;"/>
                </g>
                <g transform="matrix(0.392739,0,0,0.615385,121.906,71.7458)">
                    <path d="M132.569,271.383L256.163,271.383" style="fill:none;stroke:black;stroke-width:1.92px;"/>
                </g>
            </g>
        </g>
        <rect x="258.333" y="236.711" width="19.579" height="29.777" style="fill:rgb(255,0,0);stroke:rgb(255,0,0);stroke-width:1.41px;"/>
        <g transform="matrix(1,0,0,1,-8.56597,-1.22371)">
            <text x="294.088px" y="256.922px" style="font-family:'ArialMT', 'Arial', sans-serif;font-size:16px;stroke:white;stroke-width:1px;stroke-linecap:butt;stroke-miterlimit:1.41421;">Reactor</text>
        </g>
    </g>
    <g transform="matrix(1,0,0,1,569.297,2.0395)">
        <g>
            <g transform="matrix(1,0,0,1,-2.44742,-5.30275)">
                <rect x="112.989" y="236.303" width="172.543" height="147.661" style="fill:rgb(253,253,253);stroke:black;stroke-width:0.99px;"/>
            </g>
            <g transform="matrix(1,0,0,1,-5.5067,0)">
                <rect x="167.24" y="175.526" width="70.159" height="72.199" style="fill:rgb(239,255,0);stroke:black;stroke-width:0.99px;"/>
            </g>
            <g>
                <g transform="matrix(1,0,0,1,0.203958,0)">
                    <path d="M132.569,271.383L256.163,271.383" style="fill:none;stroke:black;stroke-width:0.99px;"/>
                </g>
                <g transform="matrix(1,0,0,1,0.203958,12.1206)">
                    <path d="M132.569,271.383L256.163,271.383" style="fill:none;stroke:black;stroke-width:0.99px;"/>
                </g>
                <g transform="matrix(1,0,0,1,0.203958,24.2411)">
                    <path d="M132.569,271.383L256.163,271.383" style="fill:none;stroke:black;stroke-width:0.99px;"/>
                </g>
                <g transform="matrix(1,0,0,1,0.203958,36.3617)">
                    <path d="M132.569,271.383L256.163,271.383" style="fill:none;stroke:black;stroke-width:0.99px;"/>
                </g>
                <g transform="matrix(1,0,0,1,0.203958,48.4822)">
                    <path d="M132.569,271.383L256.163,271.383" style="fill:none;stroke:black;stroke-width:0.99px;"/>
                </g>
                <g transform="matrix(1,0,0,1,0.203958,60.6028)">
                    <path d="M132.569,271.383L256.163,271.383" style="fill:none;stroke:black;stroke-width:0.99px;"/>
                </g>
                <g transform="matrix(1,0,0,1,0.203958,72.7233)">
                    <path d="M132.569,271.383L256.163,271.383" style="fill:none;stroke:black;stroke-width:0.99px;"/>
                </g>
                <g transform="matrix(1,0,0,1,0.203958,84.8439)">
                    <path d="M132.569,271.383L256.163,271.383" style="fill:none;stroke:black;stroke-width:0.99px;"/>
                </g>
            </g>
            <g transform="matrix(1,0,0,1,0,-1.01977)">
                <g transform="matrix(0.392739,0,0,0.615385,121.906,19.5342)">
                    <path d="M132.569,271.383L256.163,271.383" style="fill:none;stroke:black;stroke-width:1.92px;"/>
                </g>
                <g transform="matrix(0.392739,0,0,0.615385,121.906,26.993)">
                    <path d="M132.569,271.383L256.163,271.383" style="fill:none;stroke:black;stroke-width:1.92px;"/>
                </g>
                <g transform="matrix(0.392739,0,0,0.615385,121.906,34.4518)">
                    <path d="M132.569,271.383L256.163,271.383" style="fill:none;stroke:black;stroke-width:1.92px;"/>
                </g>
                <g transform="matrix(0.392739,0,0,0.615385,121.906,41.9106)">
                    <path d="M132.569,271.383L256.163,271.383" style="fill:none;stroke:black;stroke-width:1.92px;"/>
                </g>
                <g transform="matrix(0.392739,0,0,0.615385,121.906,49.3694)">
                    <path d="M132.569,271.383L256.163,271.383" style="fill:none;stroke:black;stroke-width:1.92px;"/>
                </g>
                <g transform="matrix(0.392739,0,0,0.615385,121.906,56.8282)">
                    <path d="M132.569,271.383L256.163,271.383" style="fill:none;stroke:black;stroke-width:1.92px;"/>
                </g>
                <g transform="matrix(0.392739,0,0,0.615385,121.906,64.287)">
                    <path d="M132.569,271.383L256.163,271.383" style="fill:none;stroke:black;stroke-width:1.92px;"/>
                </g>
                <g transform="matrix(0.392739,0,0,0.615385,121.906,71.7458)">
                    <path d="M132.569,271.383L256.163,271.383" style="fill:none;stroke:black;stroke-width:1.92px;"/>
                </g>
            </g>
        </g>
        <rect x="258.333" y="236.711" width="19.579" height="29.777" style="fill:rgb(255,0,0);stroke:rgb(255,0,0);stroke-width:1.41px;"/>
        <g transform="matrix(1,0,0,1,-8.56597,-1.22371)">
            <text x="294.088px" y="256.922px" style="font-family:'ArialMT', 'Arial', sans-serif;font-size:16px;stroke:white;stroke-width:1px;stroke-linecap:butt;stroke-miterlimit:1.41421;">Reactor</text>
        </g>
    </g>
    <g transform="matrix(1,0,0,1,852.11,2.0395)">
        <g>
            <g transform="matrix(1,0,0,1,-2.44742,-5.30275)">
                <rect x="112.989" y="236.303" width="172.543" height="147.661" style="fill:rgb(253,253,253);stroke:black;stroke-width:0.99px;"/>
            </g>
            <g transform="matrix(1,0,0,1,-5.5067,0)">
                <rect x="167.24" y="175.526" width="70.159" height="72.199" style="fill:rgb(239,255,0);stroke:black;stroke-width:0.99px;"/>
            </g>
            <g>
                <g transform="matrix(1,0,0,1,0.203958,0)">
                    <path d="M132.569,271.383L256.163,271.383" style="fill:none;stroke:black;stroke-width:0.99px;"/>
                </g>
                <g transform="matrix(1,0,0,1,0.203958,12.1206)">
                    <path d="M132.569,271.383L256.163,271.383" style="fill:none;stroke:black;stroke-width:0.99px;"/>
                </g>
                <g transform="matrix(1,0,0,1,0.203958,24.2411)">
                    <path d="M132.569,271.383L256.163,271.383" style="fill:none;stroke:black;stroke-width:0.99px;"/>
                </g>
                <g transform="matrix(1,0,0,1,0.203958,36.3617)">
                    <path d="M132.569,271.383L256.163,271.383" style="fill:none;stroke:black;stroke-width:0.99px;"/>
                </g>
                <g transform="matrix(1,0,0,1,0.203958,48.4822)">
                    <path d="M132.569,271.383L256.163,271.383" style="fill:none;stroke:black;stroke-width:0.99px;"/>
                </g>
                <g transform="matrix(1,0,0,1,0.203958,60.6028)">
                    <path d="M132.569,271.383L256.163,271.383" style="fill:none;stroke:black;stroke-width:0.99px;"/>
                </g>
                <g transform="matrix(1,0,0,1,0.203958,72.7233)">
                    <path d="M132.569,271.383L256.163,271.383" style="fill:none;stroke:black;stroke-width:0.99px;"/>
                </g>
                <g transform="matrix(1,0,0,1,0.203958,84.8439)">
                    <path d="M132.569,271.383L256.163,271.383" style="fill:none;stroke:black;stroke-width:0.99px;"/>
                </g>
            </g>
            <g transform="matrix(1,0,0,1,0,-1.01977)">
                <g transform="matrix(0.392739,0,0,0.615385,121.906,19.5342)">
                    <path d="M132.569,271.383L256.163,271.383" style="fill:none;stroke:black;stroke-width:1.92px;"/>
                </g>
                <g transform="matrix(0.392739,0,0,0.615385,121.906,26.993)">
                    <path d="M132.569,271.383L256.163,271.383" style="fill:none;stroke:black;stroke-width:1.92px;"/>
                </g>
                <g transform="matrix(0.392739,0,0,0.615385,121.906,34.4518)">
                    <path d="M132.569,271.383L256.163,271.383" style="fill:none;stroke:black;stroke-width:1.92px;"/>
                </g>
                <g transform="matrix(0.392739,0,0,0.615385,121.906,41.9106)">
                    <path d="M132.569,271.383L256.163,271.383" style="fill:none;stroke:black;stroke-width:1.92px;"/>
                </g>
                <g transform="matrix(0.392739,0,0,0.615385,121.906,49.3694)">
                    <path d="M132.569,271.383L256.163,271.383" style="fill:none;stroke:black;stroke-width:1.92px;"/>
                </g>
                <g transform="matrix(0.392739,0,0,0.615385,121.906,56.8282)">
                    <path d="M132.569,271.383L256.163,271.383" style="fill:none;stroke:black;stroke-width:1.92px;"/>
                </g>
                <g transform="matrix(0.392739,0,0,0.615385,121.906,64.287)">
                    <path d="M132.569,271.383L256.163,271.383" style="fill:none;stroke:black;stroke-width:1.92px;"/>
                </g>
                <g transform="matrix(0.392739,0,0,0.615385,121.906,71.7458)">
                    <path d="M132.569,271.383L256.163,271.383" style="fill:none;stroke:black;stroke-width:1.92px;"/>
                </g>
            </g>
        </g>
        <rect x="258.333" y="236.711" width="19.579" height="29.777" style="fill:rgb(255,0,0);stroke:rgb(255,0,0);stroke-width:1.41px;"/>
        <g transform="matrix(1,0,0,1,-8.56597,-1.22371)">
            <text x="294.088px" y="256.922px" style="font-family:'ArialMT', 'Arial', sans-serif;font-size:16px;stroke:white;stroke-width:1px;stroke-linecap:butt;stroke-miterlimit:1.41421;">Reactor</text>
        </g>
    </g>
    <g transform="matrix(1,0,0,1,28.9611,46.9089)">
        <text x="62.017px" y="148.617px" style="font-family:'Consolas', monospace;font-size:16px;stroke:white;stroke-width:1px;stroke-linecap:butt;stroke-miterlimit:1.41421;">Futures</text>
    </g>
    <g transform="matrix(1.15299,0,0,0.759735,-74.221,17.4603)">
        <path d="M485.127,76.405C432.734,73.074 327.948,66.412 289.741,87.011C255.133,105.67 255.635,168.557 255.885,200" style="fill:none;stroke:white;stroke-width:4.1px;"/>
    </g>
    <path d="M547.944,98.024C547.498,108.674 546.607,129.973 542.641,145.341C538.29,162.201 527.322,186.856 521.838,199.184" style="fill:none;stroke:white;stroke-width:4px;"/>
    <path d="M691.118,97.616C691.422,109.305 692.029,132.681 697.644,149.012C703.559,166.212 718.923,189.281 726.606,200.816" style="fill:none;stroke:white;stroke-width:4px;"/>
    <path d="M785.344,60.497C831.505,70.038 923.827,89.118 963.189,106.998C988.755,118.611 1010.6,151.387 1021.52,167.776" style="fill:none;stroke:white;stroke-width:4px;"/>
</svg>
